<?xml version="1.0" encoding="UTF-8"?>
<!DOCTYPE svg PUBLIC "-//W3C//DTD SVG 1.0//EN" "http://www.w3.org/TR/2001/REC-SVG-20010904/DTD/svg10.dtd">
<!-- Creator: CorelDRAW 2021 (64 Bit) -->
<svg xmlns="http://www.w3.org/2000/svg" xml:space="preserve" width="214.5mm" height="102.5mm" version="1.0" style="shape-rendering:geometricPrecision; text-rendering:geometricPrecision; image-rendering:optimizeQuality; fill-rule:evenodd; clip-rule:evenodd"
viewBox="0 0 21450 10250"
 xmlns:xlink="http://www.w3.org/1999/xlink"
 xmlns:xodm="http://www.corel.com/coreldraw/odm/2003">
 <defs>
  <style type="text/css">
   <![CDATA[
    .str0 {stroke:#373435;stroke-width:52.92;stroke-miterlimit:22.9256}
    .fil2 {fill:none;fill-rule:nonzero}
    .fil1 {fill:#373435;fill-rule:nonzero}
    .fil0 {fill:#223AA8;fill-rule:nonzero}
   ]]>
  </style>
 </defs>
 <g id="Camada_x0020_1">
  <metadata id="CorelCorpID_0Corel-Layer"/>
  <g id="_2185236327552">
   <g>
    <path class="fil0" d="M7645.06 3789.94c-54.78,76.69 -90.38,204.04 -106.81,382.06 -16.43,178.01 -15.06,379.31 4.11,603.89 19.17,224.57 56.14,461.47 110.92,710.7 54.77,249.22 123.24,483.39 205.4,702.48 27.39,65.73 58.88,134.2 94.49,205.41 35.6,71.21 71.2,138.31 106.81,201.3 35.6,62.99 69.84,113.65 102.7,152 32.87,38.34 57.51,57.51 73.95,57.51 16.43,0 45.19,-15.06 86.27,-45.19 41.08,-30.12 83.53,-67.1 127.35,-110.92 43.82,-43.82 90.38,-93.11 139.67,-147.89 49.3,-54.77 90.38,-109.55 123.25,-164.32 131.46,-186.24 250.59,-429.99 357.4,-731.25 106.81,-301.26 198.56,-638.12 275.25,-1010.59 76.68,-372.47 136.93,-766.85 180.75,-1183.13 43.82,-416.29 65.73,-832.58 65.73,-1248.87 0,-158.84 0,-287.57 0,-386.16 0,-98.59 -2.74,-180.76 -8.21,-246.49 -5.48,-65.73 -10.96,-121.87 -16.44,-168.43 -5.47,-46.56 -16.43,-94.48 -32.86,-143.78 -38.34,-125.98 -53.41,-208.15 -45.19,-246.49 8.21,-38.34 47.93,-57.51 119.13,-57.51 54.78,0 123.25,20.54 205.41,61.62 82.16,41.08 156.11,94.49 221.84,160.22 82.16,71.2 145.15,172.54 188.97,304 43.82,131.45 79.42,317.69 106.81,558.7 27.39,219.1 34.23,494.34 20.54,825.73 -13.69,331.38 -41.08,677.83 -82.16,1039.35 -41.08,361.51 -93.12,713.44 -156.11,1055.78 -62.99,342.34 -132.83,631.28 -209.51,866.81 -115.03,361.51 -251.97,664.14 -410.81,907.89 -158.85,243.75 -334.13,414.92 -525.84,513.51 -43.82,21.91 -101.33,39.72 -172.54,53.41 -71.21,13.69 -145.15,20.54 -221.84,20.54 -246.48,0 -479.28,-68.47 -698.38,-205.4 -219.1,-136.94 -391.64,-306.74 -517.62,-509.41 -175.28,-284.83 -312.21,-632.65 -410.81,-1043.46 -98.59,-410.81 -147.89,-846.27 -147.89,-1306.38 0,-301.26 21.91,-540.9 65.73,-718.91 43.82,-178.02 106.81,-280.72 188.97,-308.11 10.96,-5.48 27.39,-8.22 49.3,-8.22 43.82,0 94.49,12.33 152,36.97 57.51,24.65 113.66,57.52 168.43,98.6 54.78,41.08 104.07,84.9 147.89,131.46 43.82,46.56 76.69,94.49 98.6,143.78 21.91,43.82 30.12,76.69 24.65,98.6 -5.48,21.91 -21.91,54.77 -49.3,98.59z"/>
    <path class="fil0" d="M13268.43 6214.93c114.97,-38.32 161.51,-65.7 139.61,-82.12 -10.95,-10.95 -73.91,-38.33 -188.88,-82.12 -114.97,-43.8 -249.1,-95.81 -402.4,-156.04 -153.29,-60.22 -305.22,-124.55 -455.77,-192.98 -150.56,-68.43 -258.68,-119.08 -324.38,-151.92 -229.94,-136.87 -431.14,-294.27 -603.59,-472.2 -172.46,-177.93 -288.8,-357.23 -349.02,-537.9 -109.49,-323.01 -67.07,-672.02 127.29,-1047.05 194.35,-375.02 521.47,-737.72 981.35,-1088.1 87.6,-65.7 182.04,-132.77 283.32,-201.2 101.28,-68.44 206.67,-131.4 316.17,-188.88 109.49,-57.49 221.72,-104.02 336.69,-139.61 114.97,-35.58 229.94,-53.38 344.91,-53.38 268.27,0 479.04,150.56 632.34,451.67 21.9,43.8 38.32,80.75 49.27,110.87 10.95,30.11 19.16,60.22 24.64,90.33 5.47,30.11 6.84,61.59 4.1,94.44 -2.73,32.85 -6.84,76.64 -12.31,131.39 -10.95,71.17 -26.01,138.24 -45.17,201.2 -19.16,62.96 -53.38,136.87 -102.65,221.73 -49.28,84.86 -114.97,186.14 -197.09,303.85 -82.13,117.7 -188.88,269.63 -320.28,455.77 -120.44,169.72 -218.99,314.8 -295.64,435.24 -76.64,120.45 -117.7,194.36 -123.18,221.73 -5.47,54.75 -30.11,82.12 -73.91,82.12l-41.06 0c-60.22,-10.95 -114.97,-32.85 -164.24,-65.69 -49.27,-32.85 -112.23,-93.07 -188.88,-180.67 -60.22,-76.65 -102.65,-145.08 -127.29,-205.3 -24.63,-60.23 -26,-130.03 -4.1,-209.41 21.9,-79.39 69.8,-175.2 143.71,-287.43 73.91,-112.23 179.3,-258.68 316.17,-439.35 109.49,-147.82 199.83,-268.26 271,-361.33 38.32,-54.75 73.91,-106.76 106.75,-156.03 -5.47,-5.48 -27.37,0 -65.69,16.42 -38.33,16.43 -86.23,41.06 -143.71,73.91 -57.49,32.85 -120.45,71.17 -188.88,114.97 -68.44,43.8 -132.77,87.6 -192.99,131.39 -301.11,224.47 -550.21,472.2 -747.3,743.2 -197.1,271 -309.33,526.95 -336.7,767.84 -10.95,76.64 -12.32,130.02 -4.11,160.13 8.21,30.12 28.74,61.6 61.59,94.44 54.75,54.75 153.3,117.71 295.64,188.88 142.34,71.18 375.02,169.72 698.03,295.64 218.99,87.6 398.29,161.51 537.9,221.73 139.6,60.22 257.31,117.71 353.12,172.45 95.81,54.75 173.82,110.87 234.05,168.35 60.22,57.49 123.18,127.29 188.87,209.41 262.79,339.44 262.79,580.33 0,722.67 -109.49,60.22 -298.37,105.39 -566.63,135.5 -268.27,30.11 -591.28,47.9 -969.04,53.38l-517.36 0c-65.7,0 -128.66,-19.16 -188.88,-57.49 -65.7,-49.27 -125.92,-108.12 -180.67,-176.56 -54.74,-68.43 -95.8,-132.76 -123.18,-192.98 -27.37,-60.22 -39.69,-114.97 -36.95,-164.24 2.73,-49.28 26,-76.65 69.8,-82.13 10.95,0 72.54,-1.36 184.77,-4.1 112.24,-2.74 239.52,-6.85 381.87,-12.32 312.06,0 558.42,-6.84 739.09,-20.53 180.67,-13.69 333.96,-34.22 459.88,-61.59z"/>
   </g>
   <path class="fil1" d="M4155.36 8758.17l-217.13 738.87c-3.35,10.05 -10.39,15.08 -21.11,15.08 -10.05,0 -16.76,-5.03 -20.11,-15.08l-217.13 -738.87c-4.02,-13.4 1,-22.12 15.08,-26.14 13.57,-4.02 22.28,0.67 26.47,14.08l193.34 661.63c0.84,0.5 1.85,0.83 2.68,0.83 1.85,0 3.02,-0.16 4.02,-0.67l193.35 -661.63c4.02,-13.57 12.56,-18.26 25.8,-14.24 13.91,4.02 18.77,12.74 14.74,26.14z"/>
   <path id="_1" class="fil1" d="M5035.01 8771.24c0,11.39 -4.02,21.11 -12.07,29.15 -8.04,8.04 -17.75,12.06 -29.15,12.06 -11.39,0 -21.11,-4.02 -29.15,-12.06 -8.04,-8.04 -12.06,-17.76 -12.06,-29.15 0,-11.39 4.02,-21.11 12.06,-29.15 8.04,-8.05 17.76,-12.07 29.15,-12.07 11.4,0 21.11,4.02 29.15,12.07 8.05,8.04 12.07,17.76 12.07,29.15zm-20.11 719.76c0,14.08 -7.03,21.12 -21.11,21.12 -14.07,0 -21.11,-7.04 -21.11,-21.12l0 -525.75c0,-14.07 7.04,-21.11 21.11,-21.11 14.08,0 21.11,7.04 21.11,21.11l0 525.75z"/>
   <path id="_2" class="fil1" d="M6182.05 9491c0,14.08 -7.04,21.12 -21.11,21.12 -14.08,0 -21.11,-7.04 -21.11,-21.12l0 -374.45c0,-35.69 -12.74,-66.35 -38.2,-91.82 -25.47,-25.63 -56.3,-38.37 -92.49,-38.37l-4.02 0c-36.19,0 -67.02,12.74 -92.48,38.37 -25.47,25.47 -38.2,56.13 -38.2,91.82l0 374.45c0,14.08 -7.04,21.12 -21.11,21.12 -14.08,0 -21.11,-7.04 -21.11,-21.12l0 -373.62c0,-47.75 16.92,-88.46 50.76,-122.3 33.85,-34.01 74.56,-50.94 122.14,-50.94l4.02 0c47.58,0 88.3,16.93 122.14,50.94 33.85,33.84 50.77,74.55 50.77,122.3l0 373.62z"/>
   <path id="_3" class="fil1" d="M7062.36 8844.29l-46.24 45.23c-9.89,10.89 -19.94,11.06 -29.83,0.34 -10.05,-10.05 -10.05,-20.11 0,-30.16l46.25 -45.24c10.05,-10.05 20.1,-10.05 30.15,0 9.89,9.89 9.72,19.94 -0.33,29.83zm-16.76 645.71c0,14.74 -7.03,22.12 -21.11,22.12 -14.07,0 -21.11,-7.38 -21.11,-22.12l0 -523.74c0,-14.74 7.04,-22.12 21.11,-22.12 14.08,0 21.11,7.38 21.11,22.12l0 523.74z"/>
   <path id="_4" class="fil1" d="M8196.67 9423.65c-32.84,60.32 -83.43,90.48 -151.79,90.48l-4.02 0c-47.59,0 -88.3,-16.93 -122.14,-50.77 -33.85,-33.84 -50.77,-74.56 -50.77,-122.14l0 -227.19c0,-47.58 16.92,-88.29 50.77,-122.14 33.84,-33.84 74.55,-50.76 122.14,-50.76l4.02 0c68.36,0 118.95,30.16 151.79,90.47 6.7,12.06 3.69,21.78 -9.05,29.15 -12.06,6.71 -21.44,3.69 -28.14,-9.21 -24.8,-45.41 -63,-68.19 -114.6,-68.19l-4.02 0c-36.19,0 -67.02,12.56 -92.49,37.7 -25.46,25.29 -38.2,55.96 -38.2,92.31l0 227.53c0,36.35 12.74,67.18 38.2,92.81 25.47,25.47 56.3,38.2 92.49,38.2l4.02 0c51.6,0 89.8,-22.78 114.6,-68.35 6.7,-12.74 16.42,-15.75 29.15,-9.05 12.06,6.7 14.74,16.42 8.04,29.15z"/>
   <path id="_5" class="fil1" d="M9077.32 8771.24c0,11.39 -4.02,21.11 -12.07,29.15 -8.04,8.04 -17.75,12.06 -29.15,12.06 -11.39,0 -21.11,-4.02 -29.15,-12.06 -8.04,-8.04 -12.06,-17.76 -12.06,-29.15 0,-11.39 4.02,-21.11 12.06,-29.15 8.04,-8.05 17.76,-12.07 29.15,-12.07 11.4,0 21.11,4.02 29.15,12.07 8.05,8.04 12.07,17.76 12.07,29.15zm-20.11 719.76c0,14.08 -7.03,21.12 -21.11,21.12 -14.07,0 -21.11,-7.04 -21.11,-21.12l0 -525.75c0,-14.07 7.04,-21.11 21.11,-21.11 14.08,0 21.11,7.04 21.11,21.11l0 525.75z"/>
   <path id="_6" class="fil1" d="M10224.36 9341.22c0,47.58 -16.92,88.3 -50.77,122.14 -33.84,33.84 -74.56,50.77 -122.14,50.77l-4.02 0c-47.58,0 -88.29,-16.93 -122.14,-50.77 -33.84,-33.84 -50.76,-74.56 -50.76,-122.14l0 -375.97c0,-14.07 7.03,-21.11 21.11,-21.11 14.07,0 21.11,7.04 21.11,21.11l0 375.97c0,36.19 12.73,67.02 38.2,92.48 25.46,25.47 56.29,38.2 92.48,38.2l4.02 0c36.19,0 67.02,-12.73 92.49,-38.2 25.46,-25.46 38.2,-56.29 38.2,-92.48l0 -375.97c0,-14.07 7.03,-21.11 21.11,-21.11 14.07,0 21.11,7.04 21.11,21.11l0 375.97z"/>
   <path id="_7" class="fil1" d="M11305.05 9010.49c8.71,11.39 7.37,21.45 -4.02,30.16 -11.39,8.04 -21.61,6.7 -30.33,-4.02 -26.3,-34.85 -60.81,-52.28 -103.87,-52.28l-3.02 0c-25.63,0 -47.58,8.05 -65.68,24.3 -14.91,13.4 -24.96,29.99 -30.32,49.42 -2.68,9.39 -4.02,18.94 -4.02,28.32 0,37.69 16.25,66.34 48.75,85.78l126.67 75.39c46.57,28.15 69.86,68.53 69.86,121.31 0,13.4 -2.01,26.97 -6.03,41.04 -8.71,31.33 -25.47,56.63 -50.26,75.73 -24.8,18.94 -53.62,28.49 -86.46,28.49l-3.01 0c-56.3,0 -101.87,-22.46 -136.72,-67.36 -8.71,-11.39 -7.37,-21.44 4.02,-30.15 11.4,-8.72 21.62,-7.38 30.33,4.02 26.3,33.51 60.48,50.26 102.87,50.26l3.02 0c25.63,0 47.58,-8.04 65.67,-24.13 14.92,-13.4 24.97,-29.82 30.33,-49.25 2.68,-8.72 4.02,-18.1 4.02,-28.15 0,-37.53 -16.42,-66.01 -49.26,-85.45l-126.66 -75.39c-46.24,-28.15 -69.36,-68.7 -69.36,-121.64 0,-13.4 2.01,-26.81 6.03,-40.21 8.71,-32.17 25.46,-57.8 50.26,-76.9 24.8,-19.1 53.62,-28.65 86.45,-28.65l3.02 0c56.96,0 102.87,23.12 137.72,69.36z"/>
   <path id="_8" class="fil1" d="M12812.99 9341.39c0,48.25 -16.93,89.3 -50.77,122.98 -33.84,33.84 -74.56,50.76 -122.14,50.76l-59.31 0c-40.88,0 -77.24,-13.07 -109.07,-39.2 -31.83,-26.14 -51.77,-59.31 -59.81,-99.52 -3.35,-14.08 2.01,-22.46 16.08,-25.14 14.24,-2.68 22.62,2.68 25.3,16.09 6.7,30.83 21.95,56.12 45.74,75.89 23.96,19.78 51.27,29.66 82.26,29.66l59.48 0c35.52,0 66.18,-12.9 91.65,-38.7 25.63,-25.8 38.37,-56.8 38.37,-92.99l0 -36.19c0,-38.87 -12.57,-73.21 -37.53,-103.04 -24.97,-29.82 -56.63,-47.75 -95.17,-53.78l-62.32 -11.06c-48.93,-8.04 -89.14,-30.82 -120.64,-68.35 -31.49,-37.53 -47.24,-81.43 -47.24,-131.69l0 -35.19c0,-48.25 17.09,-89.47 51.1,-123.64 34.01,-34.18 74.89,-51.27 122.64,-51.27l59.64 0c42.39,0 79.76,13.74 112.09,41.21 32.34,27.48 52.27,62.66 59.65,105.56 2.01,14.07 -4.02,22.11 -18.27,24.12 -14.24,2.68 -22.28,-3.01 -24.29,-17.26 -5.36,-32.33 -20.27,-59.14 -44.57,-80.08 -24.29,-20.94 -52.77,-31.33 -85.28,-31.33l-59.81 0c-35.69,0 -66.51,12.9 -92.15,38.87 -25.63,25.97 -38.53,57.13 -38.53,93.49l0 35.35c0,39.71 12.56,74.39 37.53,104.04 24.96,29.66 56.63,47.75 94.99,54.45l62.33 11.06c49.09,8.04 89.3,30.83 120.8,68.36 31.5,37.36 47.25,80.92 47.25,130.52l0 36.02z"/>
   <path id="_9" class="fil1" d="M13960.03 9341.22c0,47.58 -16.92,88.3 -50.77,122.14 -33.84,33.84 -74.56,50.77 -122.14,50.77l-4.02 0c-47.58,0 -88.29,-16.93 -122.14,-50.77 -33.84,-33.84 -50.76,-74.56 -50.76,-122.14l0 -227.19c0,-47.58 16.92,-88.29 50.76,-122.14 33.85,-33.84 74.56,-50.76 122.14,-50.76l4.02 0c47.58,0 88.3,16.92 122.14,50.76 33.85,33.85 50.77,74.56 50.77,122.14l0 227.19zm-42.22 -0.33l0 -227.53c0,-36.35 -12.74,-67.02 -38.2,-92.31 -25.47,-25.14 -56.3,-37.7 -92.49,-37.7l-4.02 0c-36.19,0 -67.02,12.56 -92.48,37.7 -25.47,25.29 -38.2,55.96 -38.2,92.31l0 227.53c0,36.35 12.73,67.18 38.2,92.81 25.46,25.47 56.29,38.2 92.48,38.2l4.02 0c36.19,0 67.02,-12.73 92.49,-38.2 25.46,-25.63 38.2,-56.46 38.2,-92.81z"/>
   <path id="_10" class="fil1" d="M15107.07 9341.22c0,47.58 -16.92,88.3 -50.77,122.14 -33.84,33.84 -74.56,50.77 -122.14,50.77l-4.02 0c-47.58,0 -88.29,-16.93 -122.14,-50.77 -33.84,-33.84 -50.76,-74.56 -50.76,-122.14l0 -375.97c0,-14.07 7.03,-21.11 21.11,-21.11 14.07,0 21.11,7.04 21.11,21.11l0 375.97c0,36.19 12.73,67.02 38.2,92.48 25.46,25.47 56.29,38.2 92.48,38.2l4.02 0c36.19,0 67.02,-12.73 92.49,-38.2 25.46,-25.46 38.2,-56.29 38.2,-92.48l0 -375.97c0,-14.07 7.03,-21.11 21.11,-21.11 14.07,0 21.11,7.04 21.11,21.11l0 375.97z"/>
   <path id="_11" class="fil1" d="M16254.11 9491c0,14.08 -7.04,21.12 -21.11,21.12l-307.61 0c-14.08,0 -21.11,-7.21 -21.11,-21.62 0,-4.19 1.17,-7.87 3.35,-11.39l285.49 -487.55c2.01,-3.52 1.01,-5.2 -3.01,-5.2l-264.72 0c-14.08,0 -21.11,-7.2 -21.11,-21.61 0,-13.74 7.03,-20.61 21.11,-20.61l307.61 0c14.07,0 21.11,7.04 21.11,21.11 0,4.02 -1.01,7.71 -3.02,11.06l-285.49 487.55c-2.01,4.02 -1.01,6.03 3.01,6.03l264.39 0c14.07,0 21.11,7.04 21.11,21.11z"/>
   <path id="_12" class="fil1" d="M17401.15 9338.88c0,47.75 -16.92,88.46 -50.77,122.3 -33.84,34.01 -74.56,50.94 -122.14,50.94l-4.02 0c-47.58,0 -88.29,-16.93 -122.14,-50.94 -33.84,-33.84 -50.76,-74.72 -50.76,-122.47l0 -31.17c0,-48.42 16.92,-89.46 50.93,-122.97 34.01,-33.68 74.72,-50.43 122.47,-50.43l4.03 0c49.76,0 92.14,18.09 127.16,54.28 2.01,3.35 3.02,3.02 3.02,-1l0 -70.71c0,-35.68 -12.57,-66.34 -37.87,-91.98 -25.13,-25.63 -55.96,-38.37 -92.31,-38.37l-4.03 0c-36.35,0 -67.35,12.74 -92.82,38.2 -10.05,10.73 -20.27,10.73 -30.32,0 -10.05,-10.05 -10.05,-20.1 0,-30.15 34.18,-33.51 75.06,-50.27 122.64,-50.27l4.02 0c47.58,0 88.3,16.93 122.14,50.94 33.85,33.84 50.77,74.55 50.77,122.3l0 221.5zm-42.22 -0.17l0 -31.17c0,-36.35 -12.57,-67.35 -37.87,-92.81 -25.13,-25.64 -55.96,-38.37 -92.31,-38.37l-4.03 0c-36.35,0 -67.35,12.73 -92.82,38.37 -25.63,25.46 -38.36,56.46 -38.36,92.81l0 31.17c0,36.35 12.73,67.35 38.36,92.82 25.47,25.63 56.47,38.36 92.82,38.36l4.03 0c36.35,0 67.18,-12.73 92.31,-38.36 25.3,-25.47 37.87,-56.47 37.87,-92.82z"/>
   <path id="_13" class="fil2 str0" d="M4155.36 8758.17l-217.13 738.87c-3.35,10.05 -10.39,15.08 -21.11,15.08 -10.05,0 -16.76,-5.03 -20.11,-15.08l-217.13 -738.87c-4.02,-13.4 1,-22.12 15.08,-26.14 13.57,-4.02 22.28,0.67 26.47,14.08l193.34 661.63c0.84,0.5 1.85,0.83 2.68,0.83 1.85,0 3.02,-0.16 4.02,-0.67l193.35 -661.63c4.02,-13.57 12.56,-18.26 25.8,-14.24 13.91,4.02 18.77,12.74 14.74,26.14z"/>
   <path id="_14" class="fil2 str0" d="M5035.01 8771.24c0,11.39 -4.02,21.11 -12.07,29.15 -8.04,8.04 -17.75,12.06 -29.15,12.06 -11.39,0 -21.11,-4.02 -29.15,-12.06 -8.04,-8.04 -12.06,-17.76 -12.06,-29.15 0,-11.39 4.02,-21.11 12.06,-29.15 8.04,-8.05 17.76,-12.07 29.15,-12.07 11.4,0 21.11,4.02 29.15,12.07 8.05,8.04 12.07,17.76 12.07,29.15zm-20.11 719.76c0,14.08 -7.03,21.12 -21.11,21.12 -14.07,0 -21.11,-7.04 -21.11,-21.12l0 -525.75c0,-14.07 7.04,-21.11 21.11,-21.11 14.08,0 21.11,7.04 21.11,21.11l0 525.75z"/>
   <path id="_15" class="fil2 str0" d="M6182.05 9491c0,14.08 -7.04,21.12 -21.11,21.12 -14.08,0 -21.11,-7.04 -21.11,-21.12l0 -374.45c0,-35.69 -12.74,-66.35 -38.2,-91.82 -25.47,-25.63 -56.3,-38.37 -92.49,-38.37l-4.02 0c-36.19,0 -67.02,12.74 -92.48,38.37 -25.47,25.47 -38.2,56.13 -38.2,91.82l0 374.45c0,14.08 -7.04,21.12 -21.11,21.12 -14.08,0 -21.11,-7.04 -21.11,-21.12l0 -373.62c0,-47.75 16.92,-88.46 50.76,-122.3 33.85,-34.01 74.56,-50.94 122.14,-50.94l4.02 0c47.58,0 88.3,16.93 122.14,50.94 33.85,33.84 50.77,74.55 50.77,122.3l0 373.62z"/>
   <path id="_16" class="fil2 str0" d="M7062.36 8844.29l-46.24 45.23c-9.89,10.89 -19.94,11.06 -29.83,0.34 -10.05,-10.05 -10.05,-20.11 0,-30.16l46.25 -45.24c10.05,-10.05 20.1,-10.05 30.15,0 9.89,9.89 9.72,19.94 -0.33,29.83zm-16.76 645.71c0,14.74 -7.03,22.12 -21.11,22.12 -14.07,0 -21.11,-7.38 -21.11,-22.12l0 -523.74c0,-14.74 7.04,-22.12 21.11,-22.12 14.08,0 21.11,7.38 21.11,22.12l0 523.74z"/>
   <path id="_17" class="fil2 str0" d="M8196.67 9423.65c-32.84,60.32 -83.43,90.48 -151.79,90.48l-4.02 0c-47.59,0 -88.3,-16.93 -122.14,-50.77 -33.85,-33.84 -50.77,-74.56 -50.77,-122.14l0 -227.19c0,-47.58 16.92,-88.29 50.77,-122.14 33.84,-33.84 74.55,-50.76 122.14,-50.76l4.02 0c68.36,0 118.95,30.16 151.79,90.47 6.7,12.06 3.69,21.78 -9.05,29.15 -12.06,6.71 -21.44,3.69 -28.14,-9.21 -24.8,-45.41 -63,-68.19 -114.6,-68.19l-4.02 0c-36.19,0 -67.02,12.56 -92.49,37.7 -25.46,25.29 -38.2,55.96 -38.2,92.31l0 227.53c0,36.35 12.74,67.18 38.2,92.81 25.47,25.47 56.3,38.2 92.49,38.2l4.02 0c51.6,0 89.8,-22.78 114.6,-68.35 6.7,-12.74 16.42,-15.75 29.15,-9.05 12.06,6.7 14.74,16.42 8.04,29.15z"/>
   <path id="_18" class="fil2 str0" d="M9077.32 8771.24c0,11.39 -4.02,21.11 -12.07,29.15 -8.04,8.04 -17.75,12.06 -29.15,12.06 -11.39,0 -21.11,-4.02 -29.15,-12.06 -8.04,-8.04 -12.06,-17.76 -12.06,-29.15 0,-11.39 4.02,-21.11 12.06,-29.15 8.04,-8.05 17.76,-12.07 29.15,-12.07 11.4,0 21.11,4.02 29.15,12.07 8.05,8.04 12.07,17.76 12.07,29.15zm-20.11 719.76c0,14.08 -7.03,21.12 -21.11,21.12 -14.07,0 -21.11,-7.04 -21.11,-21.12l0 -525.75c0,-14.07 7.04,-21.11 21.11,-21.11 14.08,0 21.11,7.04 21.11,21.11l0 525.75z"/>
   <path id="_19" class="fil2 str0" d="M10224.36 9341.22c0,47.58 -16.92,88.3 -50.77,122.14 -33.84,33.84 -74.56,50.77 -122.14,50.77l-4.02 0c-47.58,0 -88.29,-16.93 -122.14,-50.77 -33.84,-33.84 -50.76,-74.56 -50.76,-122.14l0 -375.97c0,-14.07 7.03,-21.11 21.11,-21.11 14.07,0 21.11,7.04 21.11,21.11l0 375.97c0,36.19 12.73,67.02 38.2,92.48 25.46,25.47 56.29,38.2 92.48,38.2l4.02 0c36.19,0 67.02,-12.73 92.49,-38.2 25.46,-25.46 38.2,-56.29 38.2,-92.48l0 -375.97c0,-14.07 7.03,-21.11 21.11,-21.11 14.07,0 21.11,7.04 21.11,21.11l0 375.97z"/>
   <path id="_20" class="fil2 str0" d="M11305.05 9010.49c8.71,11.39 7.37,21.45 -4.02,30.16 -11.39,8.04 -21.61,6.7 -30.33,-4.02 -26.3,-34.85 -60.81,-52.28 -103.87,-52.28l-3.02 0c-25.63,0 -47.58,8.05 -65.68,24.3 -14.91,13.4 -24.96,29.99 -30.32,49.42 -2.68,9.39 -4.02,18.94 -4.02,28.32 0,37.69 16.25,66.34 48.75,85.78l126.67 75.39c46.57,28.15 69.86,68.53 69.86,121.31 0,13.4 -2.01,26.97 -6.03,41.04 -8.71,31.33 -25.47,56.63 -50.26,75.73 -24.8,18.94 -53.62,28.49 -86.46,28.49l-3.01 0c-56.3,0 -101.87,-22.46 -136.72,-67.36 -8.71,-11.39 -7.37,-21.44 4.02,-30.15 11.4,-8.72 21.62,-7.38 30.33,4.02 26.3,33.51 60.48,50.26 102.87,50.26l3.02 0c25.63,0 47.58,-8.04 65.67,-24.13 14.92,-13.4 24.97,-29.82 30.33,-49.25 2.68,-8.72 4.02,-18.1 4.02,-28.15 0,-37.53 -16.42,-66.01 -49.26,-85.45l-126.66 -75.39c-46.24,-28.15 -69.36,-68.7 -69.36,-121.64 0,-13.4 2.01,-26.81 6.03,-40.21 8.71,-32.17 25.46,-57.8 50.26,-76.9 24.8,-19.1 53.62,-28.65 86.45,-28.65l3.02 0c56.96,0 102.87,23.12 137.72,69.36z"/>
   <path id="_21" class="fil2 str0" d="M12812.99 9341.39c0,48.25 -16.93,89.3 -50.77,122.98 -33.84,33.84 -74.56,50.76 -122.14,50.76l-59.31 0c-40.88,0 -77.24,-13.07 -109.07,-39.2 -31.83,-26.14 -51.77,-59.31 -59.81,-99.52 -3.35,-14.08 2.01,-22.46 16.08,-25.14 14.24,-2.68 22.62,2.68 25.3,16.09 6.7,30.83 21.95,56.12 45.74,75.89 23.96,19.78 51.27,29.66 82.26,29.66l59.48 0c35.52,0 66.18,-12.9 91.65,-38.7 25.63,-25.8 38.37,-56.8 38.37,-92.99l0 -36.19c0,-38.87 -12.57,-73.21 -37.53,-103.04 -24.97,-29.82 -56.63,-47.75 -95.17,-53.78l-62.32 -11.06c-48.93,-8.04 -89.14,-30.82 -120.64,-68.35 -31.49,-37.53 -47.24,-81.43 -47.24,-131.69l0 -35.19c0,-48.25 17.09,-89.47 51.1,-123.64 34.01,-34.18 74.89,-51.27 122.64,-51.27l59.64 0c42.39,0 79.76,13.74 112.09,41.21 32.34,27.48 52.27,62.66 59.65,105.56 2.01,14.07 -4.02,22.11 -18.27,24.12 -14.24,2.68 -22.28,-3.01 -24.29,-17.26 -5.36,-32.33 -20.27,-59.14 -44.57,-80.08 -24.29,-20.94 -52.77,-31.33 -85.28,-31.33l-59.81 0c-35.69,0 -66.51,12.9 -92.15,38.87 -25.63,25.97 -38.53,57.13 -38.53,93.49l0 35.35c0,39.71 12.56,74.39 37.53,104.04 24.96,29.66 56.63,47.75 94.99,54.45l62.33 11.06c49.09,8.04 89.3,30.83 120.8,68.36 31.5,37.36 47.25,80.92 47.25,130.52l0 36.02z"/>
   <path id="_22" class="fil2 str0" d="M13960.03 9341.22c0,47.58 -16.92,88.3 -50.77,122.14 -33.84,33.84 -74.56,50.77 -122.14,50.77l-4.02 0c-47.58,0 -88.29,-16.93 -122.14,-50.77 -33.84,-33.84 -50.76,-74.56 -50.76,-122.14l0 -227.19c0,-47.58 16.92,-88.29 50.76,-122.14 33.85,-33.84 74.56,-50.76 122.14,-50.76l4.02 0c47.58,0 88.3,16.92 122.14,50.76 33.85,33.85 50.77,74.56 50.77,122.14l0 227.19zm-42.22 -0.33l0 -227.53c0,-36.35 -12.74,-67.02 -38.2,-92.31 -25.47,-25.14 -56.3,-37.7 -92.49,-37.7l-4.02 0c-36.19,0 -67.02,12.56 -92.48,37.7 -25.47,25.29 -38.2,55.96 -38.2,92.31l0 227.53c0,36.35 12.73,67.18 38.2,92.81 25.46,25.47 56.29,38.2 92.48,38.2l4.02 0c36.19,0 67.02,-12.73 92.49,-38.2 25.46,-25.63 38.2,-56.46 38.2,-92.81z"/>
   <path id="_23" class="fil2 str0" d="M15107.07 9341.22c0,47.58 -16.92,88.3 -50.77,122.14 -33.84,33.84 -74.56,50.77 -122.14,50.77l-4.02 0c-47.58,0 -88.29,-16.93 -122.14,-50.77 -33.84,-33.84 -50.76,-74.56 -50.76,-122.14l0 -375.97c0,-14.07 7.03,-21.11 21.11,-21.11 14.07,0 21.11,7.04 21.11,21.11l0 375.97c0,36.19 12.73,67.02 38.2,92.48 25.46,25.47 56.29,38.2 92.48,38.2l4.02 0c36.19,0 67.02,-12.73 92.49,-38.2 25.46,-25.46 38.2,-56.29 38.2,-92.48l0 -375.97c0,-14.07 7.03,-21.11 21.11,-21.11 14.07,0 21.11,7.04 21.11,21.11l0 375.97z"/>
   <path id="_24" class="fil2 str0" d="M16254.11 9491c0,14.08 -7.04,21.12 -21.11,21.12l-307.61 0c-14.08,0 -21.11,-7.21 -21.11,-21.62 0,-4.19 1.17,-7.87 3.35,-11.39l285.49 -487.55c2.01,-3.52 1.01,-5.2 -3.01,-5.2l-264.72 0c-14.08,0 -21.11,-7.2 -21.11,-21.61 0,-13.74 7.03,-20.61 21.11,-20.61l307.61 0c14.07,0 21.11,7.04 21.11,21.11 0,4.02 -1.01,7.71 -3.02,11.06l-285.49 487.55c-2.01,4.02 -1.01,6.03 3.01,6.03l264.39 0c14.07,0 21.11,7.04 21.11,21.11z"/>
   <path id="_25" class="fil2 str0" d="M17401.15 9338.88c0,47.75 -16.92,88.46 -50.77,122.3 -33.84,34.01 -74.56,50.94 -122.14,50.94l-4.02 0c-47.58,0 -88.29,-16.93 -122.14,-50.94 -33.84,-33.84 -50.76,-74.72 -50.76,-122.47l0 -31.17c0,-48.42 16.92,-89.46 50.93,-122.97 34.01,-33.68 74.72,-50.43 122.47,-50.43l4.03 0c49.76,0 92.14,18.09 127.16,54.28 2.01,3.35 3.02,3.02 3.02,-1l0 -70.71c0,-35.68 -12.57,-66.34 -37.87,-91.98 -25.13,-25.63 -55.96,-38.37 -92.31,-38.37l-4.03 0c-36.35,0 -67.35,12.74 -92.82,38.2 -10.05,10.73 -20.27,10.73 -30.32,0 -10.05,-10.05 -10.05,-20.1 0,-30.15 34.18,-33.51 75.06,-50.27 122.64,-50.27l4.02 0c47.58,0 88.3,16.93 122.14,50.94 33.85,33.84 50.77,74.55 50.77,122.3l0 221.5zm-42.22 -0.17l0 -31.17c0,-36.35 -12.57,-67.35 -37.87,-92.81 -25.13,-25.64 -55.96,-38.37 -92.31,-38.37l-4.03 0c-36.35,0 -67.35,12.73 -92.82,38.37 -25.63,25.46 -38.36,56.46 -38.36,92.81l0 31.17c0,36.35 12.73,67.35 38.36,92.82 25.47,25.63 56.47,38.36 92.82,38.36l4.03 0c36.35,0 67.18,-12.73 92.31,-38.36 25.3,-25.47 37.87,-56.47 37.87,-92.82z"/>
  </g>
 </g>
</svg>
